<?xml version="1.0" encoding="UTF-8"?>
<svg width="17px" height="16px" viewBox="0 0 17 16" version="1.1" xmlns="http://www.w3.org/2000/svg" xmlns:xlink="http://www.w3.org/1999/xlink">
    <!-- Generator: Sketch 52.6 (67491) - http://www.bohemiancoding.com/sketch -->
    <title>Star</title>
    <desc>Created with Sketch.</desc>
    <g id="Job-stories-&amp;-customer-journey-map" stroke="none" stroke-width="1" fill="none" fill-rule="evenodd">
        <g id="A4" transform="translate(-245.000000, -263.000000)" fill="#FFC200" fill-rule="nonzero">
            <path d="M253.5,276.72998 L250.933428,278.087633 C249.957046,278.604114 248.746842,278.231291 248.230361,277.25491 C248.023069,276.863036 247.951853,276.413396 248.027904,275.976646 L248.525993,273.116153 L246.441675,271.094735 C245.648753,270.325743 245.629355,269.059561 246.398348,268.26664 C246.706985,267.948399 247.112611,267.741722 247.551486,267.679087 L250.425895,267.268857 L251.704287,264.6619 C252.190616,263.670155 253.388832,263.260435 254.380577,263.746764 C254.778616,263.941954 255.100523,264.26386 255.295713,264.6619 L256.574105,267.268857 L259.448514,267.679087 C260.542003,267.835147 261.301939,268.848107 261.145879,269.941597 C261.083243,270.380472 260.876567,270.786098 260.558325,271.094735 L258.474007,273.116153 L258.972096,275.976646 C259.161581,277.064841 258.433032,278.100605 257.344836,278.29009 C256.908086,278.36614 256.458446,278.294924 256.066572,278.087633 L253.5,276.72998 Z" id="Star"></path>
        </g>
    </g>
</svg>