<?xml version="1.0" encoding="UTF-8"?>
<svg width="797px" height="76px" viewBox="0 0 797 76" version="1.1" xmlns="http://www.w3.org/2000/svg" xmlns:xlink="http://www.w3.org/1999/xlink">
    <!-- Generator: Sketch 52.6 (67491) - http://www.bohemiancoding.com/sketch -->
    <title>Path 3</title>
    <desc>Created with Sketch.</desc>
    <g id="Keuze" stroke="none" stroke-width="1" fill="none" fill-rule="evenodd">
        <path d="M55.6564417,26.863856 C255.80441,26.863856 456.248912,23.3067825 656.100348,26.863856 C683.722075,27.3554838 604.727881,33.6584191 578.149754,36.1634996 C552.829445,38.5500265 526.817098,40.13685 500.796979,41.5017366 C478.168499,42.6887147 455.309034,43.5400456 432.405318,43.8085313 C387.232263,44.3380663 341.750967,45.4446138 296.799142,43.8930735 C239.64056,41.9202095 183.561061,37.3603276 127.456285,33.2830256 C119.860144,32.7309913 143.069088,33.5677416 150.802019,33.2830256 C176.681997,32.3301599 202.224637,30.5275861 228.10549,29.5772585 C287.635244,27.3913658 347.441486,26.0653216 406.9703,23.8766977 C414.858522,23.586681 391.069258,23.6712759 383.156172,23.8766977 C317.456308,25.5822508 251.956468,28.0822049 186.215058,29.6074522 C128.41552,30.9484424 -44.2467318,28.8082792 12.6011882,32.4738358 C110.962838,38.8161997 363.597289,40.4619161 496.550619,40.1772419 C582.050692,39.9941727 838.454309,40.077838 753.027054,38.9111216 C617.1961,37.0560204 481.110777,38.9501244 345.185457,38.1099835 C286.550186,37.7475647 575.696039,25.6246838 409.127377,25.2736572 C321.103593,25.088156 233.083034,26.0311913 145.058032,25.9238271 C141.613136,25.9196253 131.727563,24.9438915 135.172457,24.9395142 C282.621563,24.7521528 430.079159,24.8645286 577.52112,25.3743027 C612.134052,25.4939754 711.572602,21.3627886 681.270353,26.8276236 C637.033802,34.8054291 581.534142,32.4465018 531.156295,33.7359303 C479.805931,35.0502505 363.591388,35.9662311 300.490825,32.0913829 C253.042282,29.1776863 111.707354,23.0040892 159.627545,21.0827788 C293.569509,15.7125146 429.594844,20.0427426 564.467724,21.5075028 C583.805686,21.7175189 526.53889,24.0847641 507.336003,24.8589978 C472.275495,26.2725887 437.080775,27.4065416 401.811805,28.0655632 C370.781947,28.6453745 339.655694,28.8009468 308.582944,28.5728165 C293.886437,28.4649174 279.260526,27.779004 264.726491,27.0591083 C248.509415,26.2558486 232.212805,25.447732 216.414133,24.0075369 C189.609086,21.5640089 109.346149,15.1573854 137.16313,15.4305279 C231.462074,16.356475 324.492835,22.824113 418.335014,25.9902531 C518.426571,29.367241 565.962193,28.4717349 650.294729,33.7963176 C660.616613,34.4480201 688.968535,34.257334 680.795796,36.4171263 C667.77749,39.8574459 561.794317,46.6828467 547.741134,47.4398207 C462.78453,52.0160044 374.501984,51.7833636 288.891915,50.8557288 C230.984445,50.2282678 160.550494,48.175351 117.804907,31.8679499 C115.848964,31.1217596 113.351393,29.623325 115.684808,29.0035792 C120.517747,27.7199699 127.695048,27.8634605 133.872048,27.600581 C147.307934,27.0287792 160.832607,26.5246001 174.38195,26.505558 C228.201751,26.4299204 282.317638,25.4201473 335.823743,27.3167607 C396.705803,29.4748272 548.689047,55.5054018 574.310157,59.0824915 C594.507324,61.9023176 638.777541,68.7926714 665.868824,64.5535805 C667.295218,64.3303864 668.743832,63.8930961 668.975015,63.382067 C675.590045,48.7595684 640.042142,37.1628076 605.908251,30.2717124 C533.379389,15.6292769 424.640321,16.804636 349.548915,29.879195 C314.714318,35.9444295 286.314114,44.6649104 247.174049,46.2803847 C217.831877,47.4914588 183.040978,44.2795674 161.605892,37.2585226 C158.241324,36.1564609 166.223931,34.3507727 184.951627,31.8800274 C190.120264,31.198129 272.507355,20.0422593 298.83912,19.315444 C336.012635,18.2893722 373.390788,17.8966565 410.692798,18.0754915 C476.187568,18.3894895 508.613835,42.0184756 564.430746,48.8387931 C570.68173,49.6026064 591.834773,37.7348504 593.557446,36.5741332 C595.302928,35.3980478 599.454171,33.3977204 596.004187,32.7355141 C580.844397,29.8256715 503.176347,30.8649708 501.826213,30.9420114 C473.213155,32.5747134 445.874532,36.0952384 418.48909,39.2573421 C351.660339,46.9738305 286.098817,55.8282519 219.29229,63.5652418 C204.541944,65.2735071 189.615645,67.3945643 173.975187,67.5749582 C155.716058,67.7855554 163.876193,54.7100501 164.890812,53.4805633 C172.909877,43.7632859 199.205949,31.5623476 231.088419,28.8083269 C314.890593,21.569461 369.89435,51.9928713 451.461551,52.4076823 C457.854276,52.4401926 464.957618,52.6861864 470.499294,51.6447895 C476.44434,50.5275911 480.511818,48.4402135 483.392451,46.407198 C485.600681,44.8487325 489.281254,42.3603257 485.17358,41.2883682 C419.855869,24.2427588 279.331448,36.3235075 214.836386,38.5085396 C194.155895,39.2091752 151.836526,41.5408459 128.645759,36.4714748 C124.507477,35.5668699 115.785084,32.6715284 120.664574,32.3470225 C191.995856,27.6032028 264.799781,25.629723 337.007054,22.6146032 C436.818398,18.4468353 544.433586,15.1063248 639.503182,27.9387499 C665.890827,31.500535 695.025876,33.742458 717.527733,39.482788 C728.744421,42.3442182 689.675578,37.2797879 675.452408,37.1095673 C613.662804,36.3700791 551.776166,37.2355779 489.96229,36.7593209 C444.115025,36.4060818 398.240006,35.8639552 352.538007,34.6216107 C308.68118,33.4294245 265.28112,30.7913365 221.461693,29.4605097 C187.45557,28.4277199 153.213281,28.4394234 119.17311,27.534155 C114.730163,27.4159987 101.804698,26.4258721 106.261464,26.3968609 C169.718282,25.9837901 233.30119,25.2103719 296.669717,26.3787447 C341.483013,27.2050009 385.450237,30.7754015 430.069511,32.3671516 C475.689171,33.9945895 521.659066,34.4218258 567.28425,36.0326605 C568.587682,36.0786792 569.257044,36.9052841 568.498376,37.2544968 C566.852275,38.0121926 563.834242,38.3254139 561.336881,38.7702179 C544.089823,41.8420847 527.012321,45.0320346 509.289699,47.8001316 C425.185082,60.9364349 327.942851,61.4189685 236.493437,59.7709066 C207.761044,59.2531039 170.94282,63.1685614 150.758878,56.4697344 L145.803764,55.6867125 C145.187035,55.4820271 144.950031,54.8938898 145.803764,54.8251871 L313.396307,42.5726047 C335.564717,40.7886377 357.513308,38.6504607 378.928301,36.064867 C394.274726,34.2119774 408.893563,31.7524746 423.413389,29.2894124 C433.938906,27.5039224 443.463305,25.1325496 453.969923,23.335225 C456.851141,22.8423467 460.10593,22.5334545 463.350125,22.4575963 C472.710479,22.2387253 500.861523,22.230268 491.50306,22.4575963 C491.47684,22.4582332 148.921648,28.3805402 162.54268,32.0028149 C220.326293,47.3693537 310.878533,36.7130799 385.13452,38.7420372 C415.375602,39.5683391 505.27801,37.9570694 476.002922,40.5677464 C422.4641,45.3422007 365.551165,44.2330684 310.173018,45.4269109 C252.167747,46.6773889 194.05907,47.4637073 135.942841,47.8987642 C126.035317,47.9729317 116.045342,47.6289203 106.35391,46.9526966 C80.0159033,45.114951 2.31496953,42.9064458 28.1074891,40.3745071 C74.4774906,35.8225671 124.969754,39.8777367 173.365043,40.3745071 C262.274788,41.2871522 351.021312,43.5082746 439.911945,44.6016178 C447.198918,44.6912466 425.35086,44.0581584 418.353503,43.3878332 C372.123011,38.9590942 326.722215,33.62987 280.386869,29.319606 C260.336388,27.4544454 239.873963,26.0552257 219.341595,24.875101 C193.327919,23.3799311 166.986257,22.5709238 140.860976,21.3001731 C139.212877,21.2200085 137.296747,21.1963947 136.078429,20.8251264 C135.134129,20.5373618 133.956413,19.6095548 135.246414,19.5891997 C263.956386,17.5582651 389.807912,24.5366696 516.3834,31.4130323 C529.706823,32.136843 670.347173,39.863566 721.700136,44.5412305 C740.144168,46.2212698 792.162602,46.6222379 776.465235,50.203546 C768.359522,52.0528406 642.1287,49.1681258 628.489764,48.7643154 C550.836516,46.4652218 473.183499,44.1258043 395.698033,41.2863553 C366.519277,40.217102 337.711819,35.8514859 308.576781,37.0411283 C292.406753,37.7013833 338.426629,41.3650293 353.943189,42.9912899 C372.422865,44.9281091 391.405456,46.3273632 410.347666,47.7075378 C426.483046,48.8831999 442.714198,49.9783069 459.116092,50.6544378 C495.392243,52.14984 563.735799,42.3671505 568.264179,54.2172883 C572.759202,65.9801339 499.711176,62.0811895 464.656698,65.1534276 C387.879465,71.8823238 306.431321,73.0695275 227.359757,72.2952319 C197.146993,71.9993782 164.794762,70.75193 138.919607,65.1795955 C137.948631,64.9704912 136.57396,64.5271437 137.150804,64.1972955 C137.779815,63.8376176 139.654468,64.0392552 140.922607,64.0342498 C259.338231,63.5668562 377.789532,63.7744416 496.174672,62.7802069 C544.492692,62.3744174 592.769729,61.2971658 640.896038,59.8353198 C660.308771,59.2456542 717.63837,57.9410458 698.557783,56.6327801 C663.916071,54.2575617 627.727739,57.0369078 592.367972,56.5079797 C574.301493,56.2377328 556.368871,55.2650287 538.55815,54.2394303 C484.775937,51.1424782 431.444074,47.247208 377.664871,44.1446873 C315.115084,40.5361919 252.217373,37.5986317 189.60475,34.1083186 C179.469476,33.5433323 169.43853,32.7836829 159.454979,31.9806729 C158.116823,31.8730406 154.702761,31.6794152 155.744807,31.3848516 C157.211174,30.9703414 159.644646,31.2914299 161.562751,31.3848516 C273.359521,36.8299343 335.76473,40.8692178 440.910363,44.3439654 C461.963325,45.0397025 525.188941,44.6993624 504.254465,45.7067053 C433.419396,49.1152077 623.237143,49.1481408 87.3346557,50.7993673 C-127.818041,51.4622974 254.512309,54.8653113 403.888762,56.1516947 C442.903912,56.487681 481.973941,56.6323747 520.974892,56.1516947 C530.890055,56.029492 540.924419,55.4772825 550.224854,54.3481274 C551.820942,54.1543482 549.066851,53.1872498 547.568568,52.9229872 C503.817958,45.2063886 460.015277,37.4917071 415.111724,30.5172874 C343.256463,19.3567285 260.940408,18.54535 190.96679,6.70456359 C183.311715,5.40918812 161.182708,2.64681537 169.550098,1.96818666 C179.718924,1.1434543 188.428389,4.97393343 198.313177,6.10874227 C209.401444,7.38171478 220.752565,8.46142261 232.302545,9.1723911 C421.875448,20.8417073 373.085293,15.7471063 616.718288,22.5421385 C645.010177,23.3312118 729.54728,24.899915 701.300352,25.8453236 C636.437433,28.0162485 570.868778,25.6072261 505.696625,26.2579701 C462.431298,26.6899745 419.072994,27.3164076 376.130265,29.0921472 C305.92151,31.9953737 236.580303,36.8292494 166.604148,40.2799003 C109.455505,43.0980033 -176.727295,44.6269162 302.000779,40.6140434 C400.397933,39.7892426 498.678357,37.7638762 597.076563,36.9525603 C641.438836,36.5867831 689.352783,31.4231125 730.205181,37.0833994 C752.24034,40.1364716 686.619384,43.59419 664.093858,46.2381135 C629.55054,50.2926199 594.722893,54.1719005 559.173641,57.1581496 C513.716156,60.9767215 467.680452,64.1116725 421.379573,66.6268777 C362.395759,69.8310586 303.184805,72.9065584 243.543997,74.3041159 C199.937057,75.3259533 156.009598,74.847639 112.393725,73.8673145 C100.637159,73.6030701 89.2005575,72.199996 78.4906407,70.594323 C72.9793174,69.7680437 58.7253953,67.0494446 64.7038383,66.7174586 C79.5551778,65.8927561 94.348986,68.7849033 109.410796,68.8773109 C202.329127,69.447386 465.002727,70.2230182 587.123194,66.1095598 C596.661727,65.7882676 568.16992,65.0338586 559.03189,64.0845725 C498.557867,57.8023488 439.379346,50.1850327 378.416766,44.4285076 C349.899097,41.7356642 320.428985,40.1817922 291.055154,38.7802825 C264.634045,37.5196555 237.940348,36.8608579 211.267964,36.4533586 C159.774787,35.6666487 108.197094,35.66326 56.6671863,35.1993158 C51.5640431,35.1533702 66.9708875,34.8816009 71.9824318,35.1993158 C113.292716,37.8182478 153.974969,41.4369669 195.324085,43.9896932 C219.587853,45.4876396 244.178458,46.3643851 268.689349,47.3432011 C287.435369,48.0918031 306.223304,48.7709241 325.069175,49.1709232 C371.897977,50.1648536 419.451481,48.8649626 465.667442,51.5240149 C498.396849,53.4071133 399.140105,52.1792594 365.967351,51.5240149 C305.462192,50.3288873 241.649073,39.0080715 184.914648,45.9784482 C163.06559,48.6628177 396.102748,61.7211161 409.589608,62.419896 C441.835108,64.090597 474.03658,66.0295375 506.584108,66.8684269 C544.436109,67.8440352 653.257252,61.6099175 620.453112,67.8547527 C585.462579,74.5158057 539.445288,67.9543853 498.960382,68.3197349 C409.249025,69.1293208 319.581846,70.3974599 229.886619,71.3793579 C193.393014,71.7788551 303.088006,71.4515038 339.355186,70.0669407 C390.598756,68.1106276 441.350582,64.8609212 491.829703,61.3792216 C532.893499,58.5469258 579.496103,59.0497762 613.772337,51.1395491 C621.624619,49.3274092 400.659987,48.9879413 438.876548,49.2071556 C513.777161,49.6367936 588.676393,50.2586473 663.588486,50.292114 C681.828756,50.3002628 700.052269,49.8236539 718.230323,49.331956 C731.623038,48.9696967 744.998857,48.4676097 758.24718,47.7316927 C770.141782,47.0709721 805.621839,45.3179155 793.567772,45.1471164 C342.955184,38.7621983 403.385994,45.4787749 569.983678,43.5005561 C574.668409,43.4449286 588.116532,43.0350679 583.715012,42.5081915 L588.885834,40.4147653 C572.046208,38.3990069 529.225601,37.1303463 509.560874,37.1095673 C493.873761,37.0929912 454.023202,33.4180662 462.536599,37.7214919 L461.630627,38.41192 C462.18627,38.6927911 463.517056,38.7509003 464.539599,38.7339855 L520.14904,38.7339855 C559.007185,38.0911996 586.143263,35.5298928 624.323524,31.0486956 C626.087509,30.8416577 628.786301,29.4257881 626.912017,29.4182386 C370.530884,28.3855565 48.7567729,34.8012404 79.6246468,35.016141 C98.7833544,35.1495229 117.965027,35.2575582 137.113826,35.016141 C149.135798,34.8645748 161.139272,34.4449818 173.026074,33.8385887 C187.22758,33.1141133 201.638466,32.5076423 215.280127,31.0285665 C220.079992,30.5081487 199.542288,29.2604985 200.112795,30.9017532 L197.493488,34.2834418 C197.758705,35.0464282 200.084186,35.5961458 201.912414,36.0789574 C206.848552,37.3825289 211.899734,38.695912 217.615933,39.5975239 C227.169362,41.1043791 237.073185,42.472463 247.408246,43.2549811 C261.694813,44.3366872 276.410636,44.7299871 291.018176,45.155168 C302.836285,45.4991572 314.726571,45.5724496 326.591454,45.5597629 C334.201318,45.551626 341.857736,45.4765998 349.376349,45.0927678 C354.462733,44.8331033 359.547418,44.3830882 364.167733,43.6414598 C366.136837,43.3253897 370.65503,42.1582766 368.500376,42.0230803 C328.786492,39.5311854 282.338116,46.2021825 247.186375,51.2220784 C225.365401,54.3382545 197.06374,54.9972587 182.548027,61.1638403 C174.199939,64.7102845 210.075245,61.8517187 223.637259,61.2262405 C257.628936,59.6585491 291.052975,56.9713408 324.613107,54.6118186 C326.046324,54.511053 329.830781,53.8859851 328.366421,53.8630162 C244.869058,52.5533369 167.550132,61.9525866 88.4440095,69.6039714 C86.688465,69.773773 81.5934768,70.1500955 83.3717974,70.2923866 C87.7994853,70.6466648 92.5349765,70.5032157 97.0476645,70.2923866 C119.345576,69.2506464 141.345118,67.5916324 163.639708,66.5423355 C188.72032,65.3619141 263.636152,65.7046082 239.125071,63.6055 C199.469146,60.2094002 157.1351,63.1083414 116.184018,62.4782704 C99.4581085,62.2209265 74.3618537,65.7142631 66.1706505,60.9444331 C-1.82277248,21.3510959 227.192376,76.0795579 197.555119,63.0438981 C164.188227,48.3677946 101.000762,44.5255039 53.986248,34.6075203 C43.9969077,32.5002112 75.0920994,38.2404044 86.2684435,39.5673302 C97.9183557,40.950481 110.129895,41.7738575 122.193017,42.7054567 C124.566375,42.8887441 131.280924,43.4432508 129.483937,42.9047348 C123.280862,41.045815 114.627642,40.2471655 108.141203,38.4944493 C104.278738,37.4507636 97.2607948,36.1814398 98.8596091,34.6296623 L97.7810707,33.3615291 C98.0346353,33.1154243 99.4045565,33.2870429 100.166181,33.3615291 L177.198476,42.0633385 C189.668307,43.282876 228.081736,45.6577924 215.44653,44.6358373 C178.868115,41.6773182 141.87325,39.2815524 105.349329,36.2520677 C104.037371,36.143247 101.28669,35.1695237 102.600597,35.2758064 L124.085082,35.2758064 C160.334724,38.2080604 195.527227,42.3976407 231.476692,45.7006666 C256.945843,48.0407644 220.342899,43.861283 241.430061,42.0331448 C254.046841,40.9393411 267.645828,41.784711 280.577924,42.3652749 C338.287174,44.9560312 395.450469,48.7251392 453.06395,51.5340794 C477.393045,52.7202423 501.96709,53.299324 526.355258,54.3481274 C528.597101,54.444537 535.030899,54.7489736 532.86963,54.9660908 C505.6166,57.7038813 475.515607,57.7923173 450.093348,62.0092624 C437.348289,64.1233629 478.723579,62.0160294 492.957546,61.5865513 C511.860972,61.0161828 530.577146,59.9095554 549.362023,59.0140525 C566.243632,58.2092813 583.215567,57.5622034 599.954719,56.4858377 C619.316326,55.2408423 638.536273,53.7449167 657.579486,52.0554231 C658.399791,51.9826465 659.386887,51.3500273 658.559415,51.2864915 C653.568765,50.9032944 648.340061,50.9536751 643.213354,50.9523485 C609.432118,50.9436072 575.587121,50.5565309 541.873885,51.2562979 C527.192881,51.5610233 508.510088,50.4279943 498.522804,53.95561 C490.44169,56.8099458 522.46016,54.5317654 534.23167,53.95561 C582.775195,51.5796519 643.886368,56.3307124 678.983851,45.1229615 C700.947032,38.1094142 621.075338,38.3763884 591.498978,35.6683238 C560.871879,32.8640517 529.951724,30.2775068 498.559782,28.6030101 C463.114701,26.7123125 357.049377,28.4349994 391.383879,24.9938627 C470.74028,17.0404572 626.934737,29.780085 709.879355,32.1074862 C724.556578,32.5193247 681.688665,29.259869 667.26168,28.2869833 C628.187312,25.651998 589.136377,22.7767591 549.497611,21.2921215 C517.109215,20.0790405 484.350004,20.3294297 451.751215,20.2152147 C430.13235,20.1394695 408.281377,19.6555355 386.909486,20.722468 C371.826104,21.475464 357.518596,23.5330647 343.650851,25.6118261 C340.165135,26.1343314 332.193993,28.001758 335.854559,28.3755513 C368.488589,31.7079276 417.088868,23.0134899 365.967351,26.4371191 C347.864906,27.6494474 330.422912,29.7521197 312.835467,31.6042588 C295.033886,33.4789486 277.17708,35.3329452 259.826845,37.6148076 C240.155859,40.2018898 180.948139,47.2900103 201.887761,46.1958424 C264.626023,42.9175508 324.98586,35.8934994 386.71843,30.9842825 C392.976236,30.4866372 374.041097,31.9629914 368.364788,32.9569342 C361.825754,34.1019434 356.083998,35.7014955 350.553496,37.316897 C345.853466,38.6897264 341.611535,40.2395944 337.808254,41.8821766 C336.91656,42.2672863 336.398241,42.8166494 336.729716,43.2871877 C337.646443,44.5885122 370.814211,45.1162829 427.265312,45.0525096 C442.003699,45.0358595 456.765341,44.7648377 471.405267,44.2091004 C487.513548,43.5976238 503.286429,42.2270594 519.372492,41.5560852 C524.500505,41.342188 508.985193,42.0765153 504.365401,42.8342829 C488.882903,45.3738204 474.138156,48.3763009 459.461224,51.3831112 C429.368331,57.548134 402.255138,65.4184504 370.090449,70.3427093 C355.802308,72.530155 393.12803,63.2975247 404.64682,59.7749325 L55.6564417,26.863856 Z" id="Path-3" stroke="#903536" stroke-width="2" fill-rule="nonzero"></path>
    </g>
</svg>