<?xml version="1.0" encoding="UTF-8"?>
<svg width="58px" height="53px" viewBox="0 0 58 53" version="1.1" xmlns="http://www.w3.org/2000/svg" xmlns:xlink="http://www.w3.org/1999/xlink">
    <!-- Generator: Sketch 48.1 (47250) - http://www.bohemiancoding.com/sketch -->
    <title>Icon rythm</title>
    <desc>Created with Sketch.</desc>
    <defs>
        <linearGradient x1="50%" y1="0%" x2="50%" y2="97.130102%" id="linearGradient-1">
            <stop stop-color="#C7AE46" offset="0%"></stop>
            <stop stop-color="#F6B007" offset="100%"></stop>
        </linearGradient>
        <path d="M7.48577472,1.62962319 C7.47382097,1.64147718 7.46183772,1.65334439 7.44982492,1.66522477 C5.99239592,3.106589 4.47033415,4.60855629 2.88363961,6.17112663 C1.99920621,6.35842048 1.27014596,6.17829048 0.638810257,5.57394628 C0.440201544,5.3721027 0.289224117,5.15361012 0.185877974,4.91846854 C-0.0149525119,4.4674941 -0.0530436349,3.9477018 0.0716046046,3.35909162 C1.20793929,2.20521331 2.31222398,1.0855161 3.38445869,0 C4.54271724,0.595827527 5.92207809,1.14296185 7.48577472,1.62962319 Z" id="path-2"></path>
        <path d="M50.4857747,1.62962319 C50.473821,1.64147718 50.4618377,1.65334439 50.4498249,1.66522477 C48.9923959,3.106589 47.4703341,4.60855629 45.8836396,6.17112663 C44.9992062,6.35842048 44.270146,6.17829048 43.6388103,5.57394628 C43.4402015,5.3721027 43.2892241,5.15361012 43.185878,4.91846854 C42.9850475,4.4674941 42.9469564,3.9477018 43.0716046,3.35909162 C44.2079393,2.20521331 45.312224,1.0855161 46.3844587,0 C47.5427172,0.595827527 48.9220781,1.14296185 50.4857747,1.62962319 Z" id="path-3"></path>
        <linearGradient x1="50.0040889%" y1="100%" x2="50.0000561%" y2="14.3310097%" id="linearGradient-4">
            <stop stop-color="#A24E4E" offset="0%"></stop>
            <stop stop-color="#FF6262" offset="48.2302296%"></stop>
            <stop stop-color="#F78282" offset="100%"></stop>
        </linearGradient>
        <linearGradient x1="50%" y1="0%" x2="50%" y2="98.2840402%" id="linearGradient-5">
            <stop stop-color="#B7B7B7" offset="0%"></stop>
            <stop stop-color="#FFFFFF" offset="49.346301%"></stop>
            <stop stop-color="#B5B5B5" offset="100%"></stop>
        </linearGradient>
        <rect id="path-6" x="27.9259259" y="13.5813356" width="2.14814815" height="24.5556507"></rect>
        <linearGradient x1="50%" y1="2.19826212%" x2="50%" y2="100%" id="linearGradient-7">
            <stop stop-color="#BABABA" offset="0%"></stop>
            <stop stop-color="#FFFFFF" offset="50.8848852%"></stop>
            <stop stop-color="#BBBBBB" offset="100%"></stop>
        </linearGradient>
        <rect id="path-8" x="11.8148148" y="12.5136986" width="1.07407407" height="23.6369863"></rect>
        <linearGradient x1="50%" y1="0%" x2="50%" y2="100%" id="linearGradient-9">
            <stop stop-color="#9B9B9B" offset="0%"></stop>
            <stop stop-color="#FFFFFF" offset="50.2431441%"></stop>
            <stop stop-color="#B3B3B3" offset="100%"></stop>
        </linearGradient>
        <rect id="path-10" x="45.1111111" y="12.5136986" width="1.07407407" height="23.6369863"></rect>
        <linearGradient x1="50%" y1="0%" x2="50%" y2="100%" id="linearGradient-11">
            <stop stop-color="#B2B2B2" offset="0%"></stop>
            <stop stop-color="#FFFFFF" offset="49.2267219%"></stop>
            <stop stop-color="#B3B3B3" offset="100%"></stop>
        </linearGradient>
        <polygon id="path-12" points="0 8.11900685 2.14814815 8.11900685 2.14814815 29.6827911 0 29.6827911 0 17.8960077 0 16.7019604"></polygon>
        <linearGradient x1="50%" y1="0%" x2="50%" y2="100%" id="linearGradient-13">
            <stop stop-color="#B0B0B0" offset="0%"></stop>
            <stop stop-color="#FFFFFF" offset="51.2137277%"></stop>
            <stop stop-color="#ABABAB" offset="100%"></stop>
        </linearGradient>
        <rect id="path-14" x="55.8518519" y="7.97003425" width="2.14814815" height="21.5637842"></rect>
        <radialGradient cx="50%" cy="50.6118463%" fx="50%" fy="50.6118463%" r="49.3881537%" gradientTransform="translate(0.500000,0.506118),scale(0.303484,1.000000),rotate(90.000000),scale(1.000000,6.029676),translate(-0.500000,-0.506118)" id="radialGradient-15">
            <stop stop-color="#FFFFFF" offset="0%"></stop>
            <stop stop-color="#FCFDF2" offset="97.5466358%"></stop>
            <stop stop-color="#FFFFFF" offset="100%"></stop>
        </radialGradient>
        <radialGradient cx="50%" cy="52.2673842%" fx="50%" fy="52.2673842%" r="47.7326158%" gradientTransform="translate(0.500000,0.522674),scale(0.743329,1.000000),rotate(90.000000),translate(-0.500000,-0.522674)" id="radialGradient-16">
            <stop stop-color="#525151" offset="0%"></stop>
            <stop stop-color="#D9D9D9" offset="100%"></stop>
        </radialGradient>
        <linearGradient x1="0%" y1="0%" x2="88.7965009%" y2="100%" id="linearGradient-17">
            <stop stop-color="#FFE474" offset="0%"></stop>
            <stop stop-color="#D0960A" offset="100%"></stop>
        </linearGradient>
        <linearGradient x1="50%" y1="0%" x2="50%" y2="100%" id="linearGradient-18">
            <stop stop-color="#FFFFFF" offset="0%"></stop>
            <stop stop-color="#A9A5A5" offset="100%"></stop>
        </linearGradient>
        <path d="M48.6408728,18.2255496 C44.9029552,14.6560341 40.4372012,10.4193851 35.2436106,5.51560277 L35.0973123,4.36642846 C30.9768751,1.03715294 28.6632722,-0.3882653 28.1565038,0.0901737441 C28.1126653,0.134652196 28.1009706,0.145067562 28.0901737,0.156503751 C27.6117347,0.663272223 29.0371529,2.97687509 32.3664285,7.09731235 L33.5156028,7.24361063 C37.4040937,11.3619071 40.8731034,15.0225534 43.9226319,18.2255496 L48.6408728,18.2255496 Z" id="path-19"></path>
        <path d="M20.6408728,18.2255496 C16.9029552,14.6560341 12.4372012,10.4193851 7.24361063,5.51560277 L7.09731235,4.36642846 C2.97687509,1.03715294 0.663272223,-0.3882653 0.156503751,0.0901737441 C0.145067562,0.100970626 0.134652196,0.112665263 0.125257654,0.125257654 C0.112665263,0.134652196 0.100970626,0.145067562 0.0901737441,0.156503751 C-0.3882653,0.663272223 1.03715294,2.97687509 4.36642846,7.09731235 L5.51560277,7.24361063 C9.40409369,11.3619071 12.8731034,15.0225534 15.9226319,18.2255496 L20.6408728,18.2255496 Z" id="path-20"></path>
    </defs>
    <g id="Nav-bar" stroke="none" stroke-width="1" fill="none" fill-rule="evenodd" transform="translate(-7.000000, -5.000000)">
        <g id="Icon-rythm" transform="translate(7.000000, 6.000000)">
            <g>
                <g>
                    <g id="Bottom-sticks" transform="translate(4.000000, 45.000000)">
                        <g id="Combined-Shape">
                            <use fill="url(#linearGradient-1)" fill-rule="evenodd" xlink:href="#path-2"></use>
                            <path stroke="#FFFFFF" stroke-width="0.4" d="M7.62660229,1.77163585 C7.60856078,1.78951874 7.60856078,1.78951874 7.59046037,1.80742768 C6.1329288,3.24889335 4.61076669,4.75095966 3.02397353,6.31362713 L2.92507414,6.36678751 C1.96645505,6.56979145 1.17334364,6.36248929 0.496251146,5.71422065 C0.281015424,5.49547925 0.116153282,5.25689289 0.00317546578,4.99983065 C-0.215811455,4.50808508 -0.257031866,3.94559044 -0.124056275,3.3176571 L-0.0708958954,3.21875771 C1.06550817,2.06480894 2.16986326,0.945040359 3.24216955,-0.140548216 L3.34536473,-0.245021637 L3.47594671,-0.177848086 C4.6202285,0.41078956 5.98787772,0.953978073 7.54520784,1.438658 L7.86272985,1.53747876 L7.62660229,1.77163585 Z"></path>
                        </g>
                        <g id="Combined-Shape" transform="translate(46.742887, 3.120909) scale(-1, 1) translate(-46.742887, -3.120909) ">
                            <use fill="url(#linearGradient-1)" fill-rule="evenodd" xlink:href="#path-3"></use>
                            <path stroke="#FFFFFF" stroke-width="0.4" d="M50.6266023,1.77163585 C50.6085608,1.78951874 50.6085608,1.78951874 50.5904604,1.80742768 C49.1329288,3.24889335 47.6107667,4.75095966 46.0239735,6.31362713 L45.9250741,6.36678751 C44.966455,6.56979145 44.1733436,6.36248929 43.4962511,5.71422065 C43.2810154,5.49547925 43.1161533,5.25689289 43.0031755,4.99983065 C42.7841885,4.50808508 42.7429681,3.94559044 42.8759437,3.3176571 L42.9291041,3.21875771 C44.0655082,2.06480894 45.1698633,0.945040359 46.2421695,-0.140548216 L46.3453647,-0.245021637 L46.4759467,-0.177848086 C47.6202285,0.41078956 48.9878777,0.953978073 50.5452078,1.438658 L50.8627299,1.53747876 L50.6266023,1.77163585 Z"></path>
                        </g>
                    </g>
                    <g id="Drum" transform="translate(0.000000, 11.000000)">
                        <ellipse id="Oval-2" stroke="#979797" stroke-width="0.5" fill="#A34E4E" cx="29" cy="29.5338185" rx="26.8518519" ry="8.60316781"></ellipse>
                        <rect id="Rectangle-2" fill="url(#linearGradient-4)" x="2.14814815" y="9.31078767" width="53.7037037" height="20.2230308" rx="0.3"></rect>
                        <g id="Rectangle-4" transform="translate(29.000000, 25.859161) scale(-1, 1) translate(-29.000000, -25.859161) ">
                            <use fill="url(#linearGradient-5)" fill-rule="evenodd" xlink:href="#path-6"></use>
                            <rect stroke="#979797" stroke-width="0.5" x="28.1759259" y="13.8313356" width="1.64814815" height="24.0556507"></rect>
                        </g>
                        <g id="Rectangle-4" transform="translate(12.351852, 24.332192) scale(-1, 1) translate(-12.351852, -24.332192) ">
                            <use fill="url(#linearGradient-7)" fill-rule="evenodd" xlink:href="#path-8"></use>
                            <rect stroke="#979797" stroke-width="0.5" x="12.0648148" y="12.7636986" width="1" height="23.1369863"></rect>
                        </g>
                        <g id="Rectangle-4" transform="translate(45.648148, 24.332192) scale(-1, 1) translate(-45.648148, -24.332192) ">
                            <use fill="url(#linearGradient-9)" fill-rule="evenodd" xlink:href="#path-10"></use>
                            <rect stroke="#979797" stroke-width="0.5" x="45.3611111" y="12.7636986" width="1" height="23.1369863"></rect>
                        </g>
                        <g id="Rectangle-4" transform="translate(1.074074, 18.900899) scale(-1, 1) translate(-1.074074, -18.900899) ">
                            <use fill="url(#linearGradient-11)" fill-rule="evenodd" xlink:href="#path-12"></use>
                            <path stroke="#979797" stroke-width="0.5" d="M0.25,8.36900685 L0.25,29.4327911 L1.89814815,29.4327911 L1.89814815,8.36900685 L0.25,8.36900685 Z"></path>
                        </g>
                        <g id="Rectangle-4" transform="translate(56.925926, 18.751926) scale(-1, 1) translate(-56.925926, -18.751926) ">
                            <use fill="url(#linearGradient-13)" fill-rule="evenodd" xlink:href="#path-14"></use>
                            <rect stroke="#979797" stroke-width="0.5" x="56.1018519" y="8.22003425" width="1.64814815" height="21.0637842"></rect>
                        </g>
                        <ellipse id="Oval-2" stroke="#979797" stroke-width="0.5" fill="#D8D8D8" cx="28.8" cy="8.60267151" rx="27.2" ry="8.60267151"></ellipse>
                        <ellipse id="Oval-2" stroke="#979797" stroke-width="0.5" fill="url(#radialGradient-15)" cx="29" cy="8.89058236" rx="26" ry="7.89058236"></ellipse>
                        <path d="M31.3932378,6.6389071 C31.063617,6.5551615 30.5992045,6.45391256 30,6.33516028 C30.4807083,6.00988056 30.7843716,5.70761934 30.9109897,5.42837662 C31.0376079,5.14913389 31.1143579,4.61243453 31.1412399,3.81827851 C31.8907472,4.30296894 32.5039421,4.47472645 32.9808247,4.33355105 C33.4577072,4.19237564 33.7891017,3.74098365 33.9750082,2.97937506 C34.6586819,3.76381094 35.2769974,4.21520293 35.8299545,4.33355105 C36.3829116,4.45189916 37.0711306,4.28014165 37.8946114,3.81827851 C37.9627307,4.87924114 38.1845234,5.50867585 38.5599894,5.70658264 C38.9354555,5.90448944 39.7321256,5.97351242 40.9499998,5.91365158 C39.8409341,6.80617702 39.044264,7.63536698 38.5599894,8.40122143 C38.0757149,9.16707589 37.6040531,10.0729453 37.1450039,11.1188298 C36.8682119,10.0327551 36.2477677,9.41326243 35.2836714,9.26035182 C34.319575,9.10744121 33.250425,9.45895558 32.0762212,10.3148949 C32.0922388,9.56747165 32.0922388,9.02117306 32.0762212,8.67599917 C32.0189413,7.4416365 31.625454,6.69790547 31.3932378,6.6389071 Z" id="Path-2" stroke="#979797" fill="url(#radialGradient-16)"></path>
                        <path d="M19.3932378,6.63203212 C19.063617,6.54828652 18.5992045,6.44703759 18,6.3282853 C18.4807083,6.00300558 18.7843716,5.70074436 18.9109897,5.42150164 C19.0376079,5.14225891 19.1143579,4.60555955 19.1412399,3.81140354 C19.8907472,4.29609396 20.5039421,4.46785147 20.9808247,4.32667607 C21.4577072,4.18550067 21.7891017,3.73410867 21.9750082,2.97250009 C22.6586819,3.75693596 23.2769974,4.20832795 23.8299545,4.32667607 C24.3829116,4.44502418 25.0711306,4.27326667 25.8946114,3.81140354 C25.9627307,4.87236616 26.1845234,5.50180087 26.5599894,5.69970767 C26.9354555,5.89761446 27.7321256,5.96663744 28.9499998,5.9067766 C27.8409341,6.79930205 27.044264,7.628492 26.5599894,8.39434645 C26.0757149,9.16020091 25.6040531,10.0660704 25.1450039,11.1119548 C24.8682119,10.0258801 24.2477677,9.40638745 23.2836714,9.25347684 C22.319575,9.10056623 21.250425,9.4520806 20.0762212,10.30802 C20.0922388,9.56059667 20.0922388,9.01429808 20.0762212,8.66912419 C20.0189413,7.43476152 19.625454,6.69103049 19.3932378,6.63203212 Z" id="Path-2" stroke="#979797" fill="url(#radialGradient-16)" transform="translate(23.475000, 7.042227) scale(-1, 1) translate(-23.475000, -7.042227) "></path>
                    </g>
                    <g id="Top-sticks" transform="translate(5.000000, 0.000000)">
                        <g id="Combined-Shape" transform="translate(38.320436, 9.112775) scale(-1, 1) translate(-38.320436, -9.112775) ">
                            <use fill="url(#linearGradient-17)" fill-rule="evenodd" xlink:href="#path-19"></use>
                            <path stroke="url(#linearGradient-18)" stroke-width="0.4" d="M33.4193306,7.43296868 L32.3411709,7.29571107 L32.2108629,7.22300787 C28.7500689,2.93979833 27.3432252,0.656343843 27.944746,0.0192056848 C27.9455601,0.0183448248 27.9455601,0.0183448248 27.9463694,0.0174946329 C27.9686356,-0.00477577624 27.9686356,-0.00477577624 28.0192057,-0.0552540423 C28.6563438,-0.656774832 30.9397983,0.750068892 35.2230079,4.21086293 L35.2957111,4.34117086 L35.4329687,5.41933064 C40.6046078,10.3025203 45.0532773,14.523039 48.7789984,18.0809075 L49.1398999,18.4255496 L43.9226319,18.4255496 L43.777783,18.3634582 C40.7409047,15.173749 37.2880902,11.5302554 33.4193306,7.43296868 Z"></path>
                        </g>
                        <g id="Combined-Shape">
                            <use fill="url(#linearGradient-17)" fill-rule="evenodd" xlink:href="#path-20"></use>
                            <path stroke="url(#linearGradient-18)" stroke-width="0.4" d="M5.41933064,7.43296868 L4.34117086,7.29571107 L4.21086293,7.22300787 C0.750068892,2.93979833 -0.656774832,0.656343843 -0.0552540423,0.0192056848 C-0.026366832,-0.00967868874 -0.026366832,-0.00967868874 -0.0350458383,0.00566338035 C-0.00967868874,-0.026366832 -0.00967868874,-0.026366832 0.0192056848,-0.0552540423 C0.656343843,-0.656774832 2.93979833,0.750068892 7.22300787,4.21086293 L7.29571107,4.34117086 L7.43296868,5.41933064 C12.6046078,10.3025203 17.0532773,14.523039 20.7789984,18.0809075 L21.1398999,18.4255496 L15.9226319,18.4255496 L15.777783,18.3634582 C12.7409047,15.173749 9.28809023,11.5302554 5.41933064,7.43296868 Z"></path>
                        </g>
                    </g>
                </g>
            </g>
        </g>
    </g>
</svg>