<?xml version="1.0" encoding="UTF-8"?>
<svg width="86px" height="99px" viewBox="0 0 86 99" version="1.1" xmlns="http://www.w3.org/2000/svg" xmlns:xlink="http://www.w3.org/1999/xlink">
    <!-- Generator: Sketch 52.5 (67469) - http://www.bohemiancoding.com/sketch -->
    <title>Group</title>
    <desc>Created with Sketch.</desc>
    <g id="Page-1" stroke="none" stroke-width="1" fill="none" fill-rule="evenodd">
        <g id="Group" transform="translate(0.000000, 3.000000)" fill-rule="nonzero" stroke="#FFFFFF" stroke-width="5">
            <path d="M57.9202039,52.0858716 C57.6823609,51.9923775 57.5135161,51.9985053 57.1900552,52.1290204 C56.8247758,52.276409 56.3640149,52.5599166 55.7082249,53.0447334 C55.4226151,53.255881 53.9194438,54.4223989 53.4453057,54.7724349 C50.1149075,57.2311257 47.056361,58.5 42.9931641,58.5 C38.9299671,58.5 35.8714206,57.2311257 32.5410224,54.7724349 C32.0668843,54.4223989 30.5637131,53.255881 30.2781032,53.0447334 C29.6223132,52.5599166 29.1615523,52.276409 28.7962729,52.1290204 C28.472812,51.9985053 28.3039672,51.9923775 28.0661242,52.0858716 C19.0642564,55.6244305 12.3263377,60.9401884 7.84334295,67.3213192 C4.35556893,72.2858447 2.5,77.64143 2.5,81.3767797 C2.5,84.457759 3.03227296,87.4154178 4.0984687,90.2640213 C4.64259475,91.7177934 6.1331256,92.7180363 7.83351633,92.7180363 L78.1528118,92.7180363 C79.8532025,92.7180363 81.3437334,91.7177934 81.8878606,90.2640181 C82.9540552,87.4154178 83.4863281,84.457759 83.4863281,81.3767797 C83.4863281,77.64143 81.6307592,72.2858447 78.1429852,67.3213192 C73.6599904,60.9401884 66.9220717,55.6244305 57.9202039,52.0858716 Z" id="Path"></path>
            <path d="M43.096272,59 C48.5820312,59 68,46.344147 68,27.3251922 C68,8.30623741 51.3619427,-7.10542736e-15 43.096272,-7.10542736e-15 C34.8306013,-7.10542736e-15 19,6.66148596 19,27.3251922 C19,47.9888985 37.6105127,59 43.096272,59 Z" id="Oval"></path>
        </g>
    </g>
</svg>