<?xml version="1.0" encoding="UTF-8"?>
<svg width="233px" height="40px" viewBox="0 0 233 40" version="1.1" xmlns="http://www.w3.org/2000/svg" xmlns:xlink="http://www.w3.org/1999/xlink">
    <!-- Generator: Sketch 48.1 (47250) - http://www.bohemiancoding.com/sketch -->
    <title>Kunai</title>
    <desc>Created with Sketch.</desc>
    <defs></defs>
    <g id="nav_bar" stroke="none" stroke-width="1" fill="none" fill-rule="evenodd" transform="translate(-152.000000, -34.000000)">
        <g id="Kunai" transform="translate(153.000000, 35.000000)">
            <g id="Group-2">
                <path d="M24.4742385,25.5472973 C22.2586775,29.6024387 17.9675333,32.3513514 13.0371622,32.3513514 C5.83693632,32.3513514 0,26.4887017 0,19.2567568 C0,12.0248119 5.83693632,6.16216216 13.0371622,6.16216216 C17.7631487,6.16216216 21.9018071,8.68789069 24.1881075,12.468745 L85.3366941,12.46875 L119.962662,0.513513514 L226.725774,19 L119.962662,37.5025338 L85.3366941,25.5472973 L24.4742385,25.5472973 Z" id="Combined-Shape" stroke="#FFFFFF" stroke-width="1.536" fill="#000000"></path>
                <path d="M85.3806306,12.3243243 L85.3806306,25.8401605" id="Path-3" stroke="#FFFFFF" stroke-width="1.536"></path>
                <path d="M85.3806306,19 L226.697437,19" id="Path-4" stroke="#FFFFFF" stroke-width="1.536"></path>
                <polyline id="Path-2" stroke="#FFFFFF" stroke-width="1.536" points="120.146396 37.496516 129.739535 18.748258 120.146396 0"></polyline>
                <ellipse id="Oval-3" stroke="#000000" stroke-width="1.536" fill="#FFFFFF" cx="12.7815315" cy="19" rx="8.69144144" ry="8.72972973"></ellipse>
            </g>
        </g>
    </g>
</svg>