<?xml version="1.0" encoding="UTF-8"?>
<svg width="1440px" height="133px" viewBox="0 0 1440 133" version="1.1" xmlns="http://www.w3.org/2000/svg" xmlns:xlink="http://www.w3.org/1999/xlink">
    <title>nav_bar</title>
    <defs>
        <linearGradient x1="50%" y1="0%" x2="50%" y2="100%" id="linearGradient-1">
            <stop stop-color="#FFFFFF" stop-opacity="0.5" offset="0%"></stop>
            <stop stop-color="#000000" stop-opacity="0.5" offset="100%"></stop>
        </linearGradient>
        <polygon id="path-2" points="0.113716476 0.16194076 0.113716476 86.0074008 0.113716476 96.6647177 0.113716476 126.761342 12.3773536 126.761342 12.3773536 96.6647177 12.3773536 86.0074008 12.3773536 10.3683273"></polygon>
        <rect id="path-3" x="2.91958525" y="89.7841014" width="6.38709677" height="6.38709677"></rect>
        <rect id="path-4" x="2.91958525" y="115.651843" width="6.38709677" height="6.38709677"></rect>
        <rect id="path-5" x="2.91958525" y="102.558295" width="6.38709677" height="6.38709677"></rect>
        <polygon id="path-6" points="0 0 0 85.84546 5.82727427e-15 96.502777 0 126.599402 12.2636371 126.599402 12.2636371 96.502777 12.2636371 85.84546 12.2636371 10.2063865"></polygon>
        <rect id="path-7" x="2.91958525" y="89.4647465" width="6.38709677" height="6.38709677"></rect>
        <rect id="path-8" x="2.91958525" y="115.332488" width="6.38709677" height="6.38709677"></rect>
        <rect id="path-9" x="2.91958525" y="102.23894" width="6.38709677" height="6.38709677"></rect>
    </defs>
    <g id="Desktop-HD" stroke="none" stroke-width="1" fill="none" fill-rule="evenodd">
        <g id="nav_bar" transform="translate(0.000000, -1.000000)">
            <g>
                <g>
                    <polygon id="Path-5" fill="#FF5200" points="1440 0 1440 103.277344 1211 109.410156 1211 0"></polygon>
                    <polygon id="Path-5" fill="#E85900" points="1222.52386 0 1359.09509 36.8030631 1264.72959 60.824224 1440 74.9207927 1295.58148 89.1465482 1359.09509 105.515286 0 130 0 2.04419244"></polygon>
                    <polygon id="Path-5" fill="#FF7200" points="1075.80223 0 1195.8711 37.935465 1112.90809 62.6957386 1267 77.2260478 1140.03205 91.8895189 1195.8711 108.76191 1 134 1 2.10709066"></polygon>
                    <polygon id="Path-5" fill="#FF8200" points="913.648021 0 1015.60223 37.935465 945.155768 62.6957386 1076 77.2260478 968.187561 91.8895189 1015.60223 108.76191 1 134 1 2.10709066"></polygon>
                    <polygon id="Path-5" fill="#FF9200" points="731.118416 7.10542736e-15 812.681788 37.935465 756.324614 62.6957386 861 77.2260478 774.750049 91.8895189 812.681788 108.76191 1 134 1 2.10709066"></polygon>
                    <g id="Group" transform="translate(1129.000000, 49.500000) rotate(-2.000000) translate(-1129.000000, -49.500000) translate(861.000000, 31.000000)" fill="#FFFFFF" font-family="HelveticaNeue-Bold, Helvetica Neue" font-size="30" font-weight="bold">
                        <text id="Home">
                            <tspan x="-3.41060513e-13" y="30">Home</tspan>
                        </text>
                        <text id="Projecten">
                            <tspan x="260.009138" y="29.4765075">Projecten</tspan>
                        </text>
                        <text id="Over-mij">
                            <tspan x="114" y="30">Over mij</tspan>
                        </text>
                        <text id="Contact">
                            <tspan x="422" y="30">Contact</tspan>
                        </text>
                    </g>
                </g>
                <g id="Logo-portfolio-websit" transform="translate(19.000000, 8.000000)">
                    <g id="Group-3" transform="translate(-1.100000, 0.000000)">
                        <g id="Group-2" transform="translate(50.622582, 50.099672) rotate(45.000000) translate(-50.622582, -50.099672) translate(44.022582, -13.700328)">
                            <g id="Path">
                                <use fill="#FFFFFF" xlink:href="#path-2"></use>
                                <use stroke="#000000" stroke-width="1.27741935" fill="url(#linearGradient-1)" xlink:href="#path-2"></use>
                            </g>
                            <path d="M3.83225806,82.1303301 L3.83225806,6.68025454 C6.59761257,9.5578675 8.13048129,11.1904028 8.43086421,11.5778604 C8.73124713,11.965318 8.73124713,14.9451315 8.43086421,20.5173009 L8.43086421,82.1303301 C7.6860082,83.2788432 7.14522167,83.8530998 6.80850464,83.8530998 C6.47178761,83.8530998 5.47970542,83.2788432 3.83225806,82.1303301 Z" id="Path-2" stroke="#000000" stroke-width="1.27741935" fill="#D9D9D9"></path>
                            <path d="M0.268208165,85.8758884 L12.4492251,85.8758884" id="Path-3" stroke="#000000" stroke-width="1.27741935" fill="#FFFFFF"></path>
                            <g id="Rectangle" transform="translate(6.113134, 92.977650) rotate(45.000000) translate(-6.113134, -92.977650) ">
                                <use fill="#FFFFFF" fill-rule="evenodd" xlink:href="#path-3"></use>
                                <rect stroke="#C92B2B" stroke-width="1.27741935" x="3.55829492" y="90.4228111" width="5.10967742" height="5.10967742"></rect>
                            </g>
                            <g id="Rectangle" transform="translate(6.113134, 118.845392) rotate(45.000000) translate(-6.113134, -118.845392) ">
                                <use fill="#FFFFFF" fill-rule="evenodd" xlink:href="#path-4"></use>
                                <rect stroke="#C91919" stroke-width="1.27741935" x="3.55829492" y="116.290553" width="5.10967742" height="5.10967742"></rect>
                            </g>
                            <g id="Rectangle" transform="translate(6.113134, 105.751843) rotate(45.000000) translate(-6.113134, -105.751843) ">
                                <use fill="#FFFFFF" fill-rule="evenodd" xlink:href="#path-5"></use>
                                <rect stroke="#C91919" stroke-width="1.27741935" x="3.55829492" y="103.197005" width="5.10967742" height="5.10967742"></rect>
                            </g>
                        </g>
                        <g id="Group" transform="translate(50.579227, 49.780317) scale(-1, 1) rotate(45.000000) translate(-50.579227, -49.780317) translate(43.979227, -14.019683)">
                            <g id="Path">
                                <use fill="#000000" xlink:href="#path-6"></use>
                                <use stroke="#FFFFFF" stroke-width="1.27741935" fill="url(#linearGradient-1)" xlink:href="#path-6"></use>
                            </g>
                            <path d="M3.83225806,81.8371724 L3.83225806,6.38709677 C6.59761257,9.26470973 8.13048129,10.897245 8.43086421,11.2847026 C8.73124713,11.6721602 8.73124713,14.6519737 8.43086421,20.2241431 L8.43086421,81.8371724 C7.6860082,82.9856855 7.14522167,83.559942 6.80850464,83.559942 C6.47178761,83.559942 5.47970542,82.9856855 3.83225806,81.8371724 Z" id="Path-2" stroke="#FFFFFF" stroke-width="1.27741935" fill="#797979"></path>
                            <path d="M0.319354839,85.5870968 L12.5003717,85.5870968" id="Path-3" stroke="#FFFFFF" stroke-width="1.27741935" fill="#000000"></path>
                            <g id="Rectangle" transform="translate(6.113134, 92.658295) rotate(45.000000) translate(-6.113134, -92.658295) ">
                                <use fill="#000000" fill-rule="evenodd" xlink:href="#path-7"></use>
                                <rect stroke="#FFFF64" stroke-width="1.27741935" x="3.55829492" y="90.1034562" width="5.10967742" height="5.10967742"></rect>
                            </g>
                            <g id="Rectangle" transform="translate(6.113134, 118.526037) rotate(45.000000) translate(-6.113134, -118.526037) ">
                                <use fill="#000000" fill-rule="evenodd" xlink:href="#path-8"></use>
                                <rect stroke="#FFFF64" stroke-width="1.27741935" x="3.55829492" y="115.971198" width="5.10967742" height="5.10967742"></rect>
                            </g>
                            <g id="Rectangle" transform="translate(6.113134, 105.432488) rotate(45.000000) translate(-6.113134, -105.432488) ">
                                <use fill="#000000" fill-rule="evenodd" xlink:href="#path-9"></use>
                                <rect stroke="#FFFF64" stroke-width="1.27741935" x="3.55829492" y="102.87765" width="5.10967742" height="5.10967742"></rect>
                            </g>
                        </g>
                    </g>
                </g>
            </g>
            <g id="Shurikens" transform="translate(390.000000, 15.000000)" fill="#000000">
                <g id="Group-2">
                    <path d="M152,30.4852814 L140,34 L143.514719,22 L140,10 L152,13.5147186 L164,10 L160.485281,22 L164,34 L152,30.4852814 Z M152,26.2133811 C154.326986,26.2133811 156.213381,24.3269861 156.213381,22 C156.213381,19.6730139 154.326986,17.7866189 152,17.7866189 C149.673014,17.7866189 147.786619,19.6730139 147.786619,22 C147.786619,24.3269861 149.673014,26.2133811 152,26.2133811 Z" id="Combined-Shape" stroke="#FFFFFF" stroke-width="2"></path>
                    <path d="M128,79.4852814 L116,83 L119.514719,71 L116,59 L128,62.5147186 L140,59 L136.485281,71 L140,83 L128,79.4852814 Z M128,75.2133811 C130.326986,75.2133811 132.213381,73.3269861 132.213381,71 C132.213381,68.6730139 130.326986,66.7866189 128,66.7866189 C125.673014,66.7866189 123.786619,68.6730139 123.786619,71 C123.786619,73.3269861 125.673014,75.2133811 128,75.2133811 Z" id="Combined-Shape" stroke="#FFFFFF" stroke-width="2"></path>
                    <path d="M194,54.4852814 L182,58 L185.514719,46 L182,34 L194,37.5147186 L206,34 L202.485281,46 L206,58 L194,54.4852814 Z M194,50.2133811 C196.326986,50.2133811 198.213381,48.3269861 198.213381,46 C198.213381,43.6730139 196.326986,41.7866189 194,41.7866189 C191.673014,41.7866189 189.786619,43.6730139 189.786619,46 C189.786619,48.3269861 191.673014,50.2133811 194,50.2133811 Z" id="Combined-Shape" stroke="#FFFFFF" stroke-width="2"></path>
                    <path d="M15,1 L200,1" id="Path-2" stroke="#000000" stroke-width="2"></path>
                    <path d="M0,39 L122.592715,39" id="Path-2" stroke="#000000" stroke-width="2"></path>
                    <path d="M90,55 L179.590909,55" id="Path-2" stroke="#000000" stroke-width="2"></path>
                    <path d="M15,70 L104.590909,70" id="Path-2" stroke="#000000" stroke-width="2"></path>
                    <path d="M65,87 L220.591623,87" id="Path-2" stroke="#000000" stroke-width="2"></path>
                </g>
            </g>
            <g id="Kunai" transform="translate(153.000000, 35.000000)">
                <g id="Group-2">
                    <path d="M24.4742385,25.5472973 C22.2586775,29.6024387 17.9675333,32.3513514 13.0371622,32.3513514 C5.83693632,32.3513514 0,26.4887017 0,19.2567568 C0,12.0248119 5.83693632,6.16216216 13.0371622,6.16216216 C17.7631487,6.16216216 21.9018071,8.68789069 24.1881075,12.468745 L85.3366941,12.46875 L119.962662,0.513513514 L226.725774,19 L119.962662,37.5025338 L85.3366941,25.5472973 L24.4742385,25.5472973 Z" id="Combined-Shape" stroke="#FFFFFF" stroke-width="1.536" fill="#000000"></path>
                    <path d="M85.3806306,12.3243243 L85.3806306,25.8401605" id="Path-3" stroke="#FFFFFF" stroke-width="1.536"></path>
                    <path d="M85.3806306,19 L226.697437,19" id="Path-4" stroke="#FFFFFF" stroke-width="1.536"></path>
                    <polyline id="Path-2" stroke="#FFFFFF" stroke-width="1.536" points="120.146396 37.496516 129.739535 18.748258 120.146396 0"></polyline>
                    <ellipse id="Oval-3" stroke="#000000" stroke-width="1.536" fill="#FFFFFF" cx="12.7815315" cy="19" rx="8.69144144" ry="8.72972973"></ellipse>
                </g>
            </g>
        </g>
    </g>
</svg>