<?xml version="1.0" encoding="UTF-8"?>
<svg width="221px" height="88px" viewBox="0 0 221 88" version="1.1" xmlns="http://www.w3.org/2000/svg" xmlns:xlink="http://www.w3.org/1999/xlink">
    <!-- Generator: Sketch 48.1 (47250) - http://www.bohemiancoding.com/sketch -->
    <title>Shurikens</title>
    <desc>Created with Sketch.</desc>
    <defs></defs>
    <g id="nav_bar" stroke="none" stroke-width="1" fill="none" fill-rule="evenodd" transform="translate(-390.000000, -15.000000)">
        <g id="Shurikens" transform="translate(390.000000, 15.000000)" fill="#000000">
            <g id="Group-2">
                <path d="M152,30.4852814 L140,34 L143.514719,22 L140,10 L152,13.5147186 L164,10 L160.485281,22 L164,34 L152,30.4852814 Z M152,26.2133811 C154.326986,26.2133811 156.213381,24.3269861 156.213381,22 C156.213381,19.6730139 154.326986,17.7866189 152,17.7866189 C149.673014,17.7866189 147.786619,19.6730139 147.786619,22 C147.786619,24.3269861 149.673014,26.2133811 152,26.2133811 Z" id="Combined-Shape" stroke="#FFFFFF" stroke-width="2"></path>
                <path d="M128,79.4852814 L116,83 L119.514719,71 L116,59 L128,62.5147186 L140,59 L136.485281,71 L140,83 L128,79.4852814 Z M128,75.2133811 C130.326986,75.2133811 132.213381,73.3269861 132.213381,71 C132.213381,68.6730139 130.326986,66.7866189 128,66.7866189 C125.673014,66.7866189 123.786619,68.6730139 123.786619,71 C123.786619,73.3269861 125.673014,75.2133811 128,75.2133811 Z" id="Combined-Shape" stroke="#FFFFFF" stroke-width="2"></path>
                <path d="M194,54.4852814 L182,58 L185.514719,46 L182,34 L194,37.5147186 L206,34 L202.485281,46 L206,58 L194,54.4852814 Z M194,50.2133811 C196.326986,50.2133811 198.213381,48.3269861 198.213381,46 C198.213381,43.6730139 196.326986,41.7866189 194,41.7866189 C191.673014,41.7866189 189.786619,43.6730139 189.786619,46 C189.786619,48.3269861 191.673014,50.2133811 194,50.2133811 Z" id="Combined-Shape" stroke="#FFFFFF" stroke-width="2"></path>
                <path d="M15,1 L200,1" id="Path-2" stroke="#000000" stroke-width="2"></path>
                <path d="M0,39 L122.592715,39" id="Path-2" stroke="#000000" stroke-width="2"></path>
                <path d="M90,55 L179.590909,55" id="Path-2" stroke="#000000" stroke-width="2"></path>
                <path d="M15,70 L104.590909,70" id="Path-2" stroke="#000000" stroke-width="2"></path>
                <path d="M65,87 L220.591623,87" id="Path-2" stroke="#000000" stroke-width="2"></path>
            </g>
        </g>
    </g>
</svg>